<?xml version="1.0" ?><svg style="enable-background:new 0 0 44 44;" version="1.1" viewBox="0 0 44 44" xml:space="preserve" xmlns="http://www.w3.org/2000/svg" xmlns:xlink="http://www.w3.org/1999/xlink"><g id="ghost"/><g id="bat"/><g id="monster"/><g id="jason"/><g id="grave"/><g id="skull"><g><path d="M22,18c-0.552,0-1,0.448-1,1v2c0,0.552,0.448,1,1,1s1-0.448,1-1v-2C23,18.447,22.552,18,22,18z"/><path d="M20.734,14.773c-0.109-0.244-0.312-0.433-0.561-0.527l-2.657-0.996c-0.249-0.093-0.526-0.083-0.77,0.028    c-1.062,0.489-1.748,1.557-1.748,2.721c0,1.654,1.346,3,3,3s3-1.346,3-3C21,15.578,20.91,15.165,20.734,14.773z M17.999,17    c-0.552,0-1-0.448-1-1c0-0.552,0.448-1,1-1s1,0.448,1,1C19,16.552,18.552,17,17.999,17z"/><path d="M27.253,13.279c-0.241-0.111-0.52-0.122-0.77-0.028l-2.657,0.996c-0.25,0.094-0.453,0.284-0.562,0.528    C23.09,15.168,23,15.58,23,16c0,1.654,1.346,3,3,3s3-1.346,3-3C29.001,14.836,28.315,13.768,27.253,13.279z M26.001,17    c-0.552,0-1-0.448-1-1c0-0.552,0.448-1,1-1s1,0.448,1,1C27.001,16.552,26.553,17,26.001,17z"/><path d="M35.501,34.743c-0.697-0.41-1.51-0.521-2.287-0.312c-0.449,0.121-0.855,0.338-1.196,0.636l-4.014-2.362l3.013-1.773    c0.341,0.298,0.747,0.515,1.196,0.636c0.778,0.209,1.59,0.098,2.287-0.312c1.43-0.841,1.924-2.708,1.101-4.162    c-0.377-0.666-0.973-1.154-1.689-1.387c0.129-0.593,0.073-1.224-0.166-1.812c1.293-0.334,2.255-1.499,2.255-2.895v-1.026    c0-0.754-0.121-1.499-0.359-2.213l-0.384-1.153c-0.17-0.511-0.257-1.042-0.257-1.581V11c0-6.065-4.935-11-11.002-11H20    C13.933,0,8.998,4.934,8.998,11v4.026c0,0.539-0.086,1.07-0.257,1.582L8.357,17.76c-0.238,0.715-0.359,1.46-0.359,2.214V21    c0,1.396,0.962,2.561,2.255,2.895c-0.239,0.588-0.295,1.219-0.166,1.812c-0.716,0.233-1.312,0.721-1.689,1.387    c-0.823,1.453-0.329,3.32,1.101,4.162c0.696,0.409,1.508,0.52,2.287,0.312c0.449-0.121,0.855-0.338,1.196-0.636l3.013,1.773    l-4.014,2.362c-0.341-0.298-0.747-0.515-1.196-0.636c-0.778-0.209-1.591-0.098-2.287,0.312c-1.43,0.842-1.924,2.709-1.101,4.162    c0.377,0.666,0.973,1.154,1.689,1.387c-0.155,0.716-0.059,1.49,0.328,2.172c0.404,0.714,1.06,1.223,1.845,1.434    C11.516,43.966,11.777,44,12.036,44c0.526,0,1.045-0.141,1.511-0.415c1.135-0.668,1.681-1.982,1.445-3.223L22,36.238l7.008,4.124    c-0.236,1.241,0.31,2.555,1.445,3.223C30.92,43.859,31.438,44,31.964,44c0.258,0,0.519-0.034,0.776-0.103    c0.786-0.21,1.441-0.72,1.845-1.434c0.387-0.683,0.483-1.457,0.328-2.172c0.716-0.233,1.312-0.721,1.689-1.387    C37.425,37.452,36.931,35.585,35.501,34.743z M33.486,29.532c-0.229,0.136-0.496,0.172-0.755,0.104    c-0.263-0.07-0.484-0.244-0.622-0.487c-0.132-0.233-0.353-0.404-0.611-0.473c-0.256-0.068-0.534-0.032-0.766,0.104l-0.69,0.406    c0.584-0.545,0.955-1.315,0.958-2.174c0.02,0.113,0.053,0.225,0.115,0.33c0.281,0.477,0.894,0.635,1.369,0.354    c0.231-0.134,0.498-0.172,0.755-0.104c0.263,0.07,0.484,0.244,0.622,0.487C34.15,28.589,33.982,29.241,33.486,29.532z     M31.485,24.164c0.144,0.09,0.272,0.202,0.359,0.356c0.289,0.51,0.121,1.161-0.375,1.453c-0.257,0.151-0.416,0.4-0.468,0.672    v-1.645C31.001,24.641,31.201,24.341,31.485,24.164z M31.485,24.164c0.068-0.042,0.135-0.078,0.212-0.103    C31.624,24.089,31.552,24.122,31.485,24.164z M33.002,23.999c0.159,0,0.313-0.023,0.465-0.047    C33.315,23.98,33.161,23.999,33.002,23.999z M9.998,19.974c0-0.539,0.086-1.07,0.257-1.582l0.384-1.152    c0.238-0.715,0.359-1.46,0.359-2.214V11c0-4.962,4.038-9,9.001-9h0.382l1.402,2.803l-1.49,1.49c-0.391,0.391-0.391,1.023,0,1.414    C20.488,7.902,20.744,8,21,8s0.512-0.098,0.707-0.293l2-2c0.304-0.304,0.38-0.769,0.188-1.154L22.618,2H24    c4.963,0,9.001,4.038,9.001,9v4.026c0,0.754,0.121,1.499,0.359,2.213l0.384,1.153c0.17,0.511,0.257,1.042,0.257,1.581V21    c0,0.551-0.449,1-1,1h-1c-0.352,0-0.686,0.072-1,0.184V21c0-0.552-0.448-1-1-1c-0.552,0-1,0.448-1,1v6c0,0.551-0.449,1-1,1h-1v-2    c0-0.552-0.448-1-1-1c-0.552,0-1,0.448-1,1v2h-2v-2c0-0.552-0.448-1-1-1s-1,0.448-1,1v2h-2v-2c0-0.552-0.448-1-1-1    c-0.552,0-1,0.448-1,1v2h-1c-0.551,0-1-0.449-1-1v-6c0-0.552-0.448-1-1-1s-1,0.448-1,1v1.184c-0.314-0.112-0.648-0.184-1-0.184h-1    c-0.551,0-1-0.449-1-1V19.974z M29.532,29.565c-0.003,0.002-0.007,0.004-0.011,0.006C29.525,29.569,29.529,29.567,29.532,29.565z     M14.478,29.571c-0.003-0.002-0.007-0.004-0.01-0.006C14.471,29.567,14.475,29.569,14.478,29.571z M12.155,24.52    c0.087-0.154,0.216-0.266,0.359-0.356c0.284,0.177,0.484,0.477,0.484,0.835v1.645c-0.053-0.272-0.211-0.521-0.468-0.672    C12.035,25.681,11.867,25.03,12.155,24.52z M12.302,24.061c0.077,0.025,0.145,0.061,0.212,0.103    C12.448,24.122,12.376,24.089,12.302,24.061z M10.998,23.999c-0.16,0-0.314-0.02-0.465-0.047    C10.686,23.977,10.839,23.999,10.998,23.999z M12.761,28.641c-0.086,0-0.174,0.011-0.259,0.034    c-0.259,0.069-0.479,0.24-0.611,0.473c-0.138,0.243-0.359,0.416-0.622,0.487c-0.257,0.068-0.525,0.031-0.755-0.104    c-0.496-0.291-0.664-0.943-0.375-1.453c0.138-0.243,0.359-0.416,0.622-0.487c0.257-0.069,0.525-0.032,0.755,0.104    c0.478,0.28,1.089,0.121,1.369-0.354c0.062-0.105,0.095-0.217,0.115-0.33c0.004,0.859,0.374,1.629,0.958,2.174l-0.69-0.406    C13.113,28.688,12.938,28.641,12.761,28.641z M15.061,29.834c0.297,0.099,0.609,0.165,0.939,0.165h3.463l0.566,0.333l-2.06,1.212    L15.061,29.834z M13.27,39.054c-0.47,0.277-0.632,0.88-0.363,1.354c0.289,0.51,0.121,1.161-0.375,1.453    c-0.23,0.136-0.495,0.174-0.755,0.104c-0.263-0.07-0.484-0.244-0.622-0.487c-0.289-0.51-0.121-1.161,0.375-1.453    c0.316-0.186,0.493-0.52,0.493-0.862c0-0.172-0.044-0.347-0.138-0.507c-0.28-0.475-0.892-0.634-1.369-0.354    c-0.229,0.136-0.497,0.173-0.755,0.104c-0.263-0.07-0.484-0.244-0.622-0.487c-0.289-0.509-0.12-1.161,0.375-1.453    c0.23-0.135,0.499-0.172,0.755-0.104c0.263,0.07,0.484,0.244,0.622,0.487c0.132,0.233,0.353,0.404,0.611,0.473    c0.259,0.071,0.534,0.032,0.766-0.104l12.27-7.22h3.463c0.33,0,0.642-0.066,0.939-0.165L13.27,39.054z M34.861,37.919    c-0.138,0.243-0.359,0.416-0.622,0.487c-0.258,0.068-0.524,0.032-0.755-0.104c-0.477-0.28-1.09-0.121-1.369,0.354    c-0.094,0.16-0.139,0.334-0.138,0.507c0,0.343,0.176,0.676,0.493,0.862c0.496,0.291,0.664,0.943,0.375,1.453    c-0.138,0.243-0.359,0.416-0.622,0.487c-0.257,0.068-0.524,0.032-0.755-0.104c-0.496-0.291-0.664-0.943-0.375-1.453    c0.269-0.475,0.107-1.078-0.363-1.354l-6.758-3.977l2.06-1.212l5.699,3.354c0.231,0.136,0.507,0.174,0.766,0.104    c0.259-0.069,0.479-0.24,0.611-0.473c0.138-0.243,0.359-0.416,0.622-0.487c0.257-0.069,0.524-0.032,0.755,0.104    C34.981,36.758,35.15,37.41,34.861,37.919z"/></g></g><g id="cauldron"/><g id="cleaver"/><g id="candle"/><g id="cat"/><g id="owl"/><g id="pumkin"/><g id="eye"/><g id="vampire"/><g id="finger"/><g id="leaf"/><g id="coffin"/><g id="broom"/><g id="moon"/><g id="poison"/><g id="sweet"/><g id="zombie"/><g id="hat"/><g id="candy"/></svg>